<?xml version="1.0" encoding="utf-8"?>
<!-- Generator: Adobe Illustrator 18.1.1, SVG Export Plug-In . SVG Version: 6.00 Build 0)  -->
<svg version="1.1" id="Layer_1" xmlns="http://www.w3.org/2000/svg" xmlns:xlink="http://www.w3.org/1999/xlink" x="0px" y="0px"
	 viewBox="0 0 595.3 841.9" enable-background="new 0 0 595.3 841.9" xml:space="preserve">
<g>
	<polygon fill="#FFFFFF" points="274.6,421.7 274.6,430.2 266.4,421.7 260.3,421.7 260.3,435.8 264.3,435.8 264.3,427.4 
		272.5,435.8 278.6,435.8 278.6,421.7 	"/>
	<path fill="#FFFFFF" d="M222.2,424.5h3.2c1.8,0,2.8,0.9,2.8,2.3c0,1.9-0.9,2.6-3.6,2.6l4,6.4h6.6l-4.2-6c0.6-0.1,3.4-0.5,3.4-4.1
		c0-4-4-4-6.6-4h-11.6v14.2h5.9V424.5z"/>
	<path fill="#FFFFFF" d="M250.1,421.7v7.9c0,1.3-0.3,2.3-0.8,2.9c-0.5,0.5-1.2,0.8-2.3,0.8c-1,0-1.8-0.3-2.3-0.8
		c-0.6-0.6-0.8-1.5-0.8-2.9v-7.9h-6v8.3c0,2.2,0.5,3.2,1.4,4.1c1.5,1.5,4.3,2.1,7.7,2.1c3.3,0,6.2-0.6,7.7-2.1c1-1,1.4-1.9,1.4-4.1
		v-8.3H250.1z"/>
	<path fill="#FFFFFF" d="M292.1,432.9H289v-8.4h3.1c3.2,0,4.7,1.4,4.7,4.2C296.8,431.4,295.1,432.9,292.1,432.9 M292.7,421.7h-9.7
		v14.2h9.7c7.1,0,10.4-1.5,10.4-7.1C303.1,423.1,299.8,421.7,292.7,421.7"/>
	<path fill="#FFFFFF" d="M335,433.4c-3,0-4.6-1.6-4.6-4.6c0-3.1,1.5-4.6,4.6-4.6c3.1,0,4.6,1.6,4.6,4.6
		C339.6,432,338.2,433.4,335,433.4 M335,421.3c-7.8,0-11.1,2.8-11.1,7.4c0,5.1,3.4,7.6,11.1,7.6c7.7,0,11.1-2.5,11.1-7.6
		C346.1,424.1,342.7,421.3,335,421.3"/>
	<polygon fill="#FFFFFF" points="312.8,424.7 321,424.7 322.8,421.7 306.7,421.7 306.7,435.8 312.8,435.8 312.8,431.2 319.5,431.2 
		321.4,428.2 312.8,428.2 	"/>
	<path fill="#FFFFFF" d="M206.4,429v4c0,0-1.7,0.2-2.6,0.2c-4.7,0-5.2-2.6-5.2-4.4c0-2.9,1.9-4.4,5.7-4.4c2.5,0,3.8,0.1,5.6,0.4
		l0.7,0.1l1.9-3.1c-4.2-0.5-6.8-0.6-9.1-0.6c-7.7,0-11.2,2.4-11.2,7.6c0,5.2,3.5,7.2,11.1,7.2c3.3,0,6.5-0.3,9-0.8V429H206.4z"/>
	<path fill="#FFFFFF" d="M360.6,427c-2.8-0.4-4.5-0.4-4.5-1.7c0-1.3,2.8-1.4,4.6-1.4c1.1,0,3.1,0.2,4.8,0.5l1.7-2.8
		c-1.2-0.2-4.4-0.5-7.9-0.5c-6.4,0-10.4,1.1-10.4,4.2c0,3.3,3.5,3.9,6.9,4.4c2.7,0.4,4.4,0.5,4.4,1.8c0,1.4-2.4,1.6-4.7,1.6
		c-0.7,0-2.7-0.1-5.1-0.6l-2,3.2c2.7,0.3,3.9,0.5,8.8,0.5c7.1,0,10.4-1.3,10.4-4.8C367.4,428.3,363.9,427.6,360.6,427"/>
	<path fill="#FFFFFF" d="M383.9,435.8h-7.6c5.4-5.4,10.6-10.6,10.6-10.6s0.6,0.4,2,1.8c1.4,1.4,1.8,2,1.8,2L383.9,435.8z"/>
	<path fill="#FFFFFF" d="M380.4,427.6c-4-4.9-5.1-7-6.2-9.6c-0.7-1.6-1.5-4.8,0.2-6.5c1.5-1.5,4.4-1,7.3,0.3
		c3.4,1.5,7.2,4.2,10.9,7.6l12-12v7.6l-11,11c0,0-1.2-1.2-1.8-1.8c-6.5-6.3-12.4-9.4-13.9-8c-2,2,4.2,9.1,4.4,9.4L380.4,427.6z"/>
	<path fill="#FFFFFF" d="M404.6,435.8h-4.3c0,0-0.5-1.4-2-3.8c-1.5-2.3-2.8-3.6-2.8-3.6l2.9-2.9c1.2,1.4,2.4,3,3.5,4.9
		C403,432.1,404,433.9,404.6,435.8"/>
</g>
</svg>
