<svg id="Layer_1" data-name="Layer 1" xmlns="http://www.w3.org/2000/svg" viewBox="0 0 212.4 28.9"><defs><style>.cls-1{fill:#fff;}</style></defs><title>logo1</title><polygon class="cls-1" points="82.4 14.3 82.4 22.8 74.2 14.3 68.1 14.3 68.1 28.4 72.1 28.4 72.1 20 80.3 28.4 86.4 28.4 86.4 14.3 82.4 14.3"/><path class="cls-1" d="M222.2,424.5h3.2c1.8,0,2.8.9,2.8,2.3,0,1.9-.9,2.6-3.6,2.6l4,6.4h6.6l-4.2-6a3.74,3.74,0,0,0,3.4-4.1c0-4-4-4-6.6-4H216.2v14.2h5.9V424.5Z" transform="translate(-192.2 -407.4)"/><path class="cls-1" d="M250.1,421.7v7.9a4.56,4.56,0,0,1-.8,2.9,3,3,0,0,1-2.3.8,3.2,3.2,0,0,1-2.3-.8,3.88,3.88,0,0,1-.8-2.9v-7.9h-6V430c0,2.2.5,3.2,1.4,4.1,1.5,1.5,4.3,2.1,7.7,2.1s6.2-.6,7.7-2.1c1-1,1.4-1.9,1.4-4.1v-8.3Z" transform="translate(-192.2 -407.4)"/><path class="cls-1" d="M292.1,432.9H289v-8.4h3.1c3.2,0,4.7,1.4,4.7,4.2s-1.7,4.2-4.7,4.2m.6-11.2H283v14.2h9.7c7.1,0,10.4-1.5,10.4-7.1s-3.3-7.1-10.4-7.1" transform="translate(-192.2 -407.4)"/><path class="cls-1" d="M335,433.4c-3,0-4.6-1.6-4.6-4.6s1.5-4.6,4.6-4.6,4.6,1.6,4.6,4.6c0,3.2-1.4,4.6-4.6,4.6m0-12.1c-7.8,0-11.1,2.8-11.1,7.4,0,5.1,3.4,7.6,11.1,7.6s11.1-2.5,11.1-7.6c0-4.6-3.4-7.4-11.1-7.4" transform="translate(-192.2 -407.4)"/><polygon class="cls-1" points="120.6 17.3 128.8 17.3 130.6 14.3 114.5 14.3 114.5 28.4 120.6 28.4 120.6 23.8 127.3 23.8 129.2 20.8 120.6 20.8 120.6 17.3"/><path class="cls-1" d="M206.4,429v4s-1.7.2-2.6.2c-4.7,0-5.2-2.6-5.2-4.4,0-2.9,1.9-4.4,5.7-4.4a29.92,29.92,0,0,1,5.6.4l.7.1,1.9-3.1a72.35,72.35,0,0,0-9.1-.6c-7.7,0-11.2,2.4-11.2,7.6s3.5,7.2,11.1,7.2a47.76,47.76,0,0,0,9-.8V429Z" transform="translate(-192.2 -407.4)"/><path class="cls-1" d="M360.6,427c-2.8-.4-4.5-.4-4.5-1.7s2.8-1.4,4.6-1.4a32.6,32.6,0,0,1,4.8.5l1.7-2.8a57.8,57.8,0,0,0-7.9-.5c-6.4,0-10.4,1.1-10.4,4.2,0,3.3,3.5,3.9,6.9,4.4,2.7.4,4.4.5,4.4,1.8s-2.4,1.6-4.7,1.6a27.65,27.65,0,0,1-5.1-.6l-2,3.2a59,59,0,0,0,8.8.5c7.1,0,10.4-1.3,10.4-4.8-.2-3.1-3.7-3.8-7-4.4" transform="translate(-192.2 -407.4)"/><path class="cls-1" d="M383.9,435.8h-7.6l10.6-10.6a25.6,25.6,0,0,1,3.8,3.8Z" transform="translate(-192.2 -407.4)"/><path class="cls-1" d="M380.4,427.6c-4-4.9-5.1-7-6.2-9.6-.7-1.6-1.5-4.8.2-6.5,1.5-1.5,4.4-1,7.3.3a42.46,42.46,0,0,1,10.9,7.6l12-12V415l-11,11-1.8-1.8c-6.5-6.3-12.4-9.4-13.9-8-2,2,4.2,9.1,4.4,9.4Z" transform="translate(-192.2 -407.4)"/><path class="cls-1" d="M404.6,435.8h-4.3a22.27,22.27,0,0,0-2-3.8,24.31,24.31,0,0,0-2.8-3.6l2.9-2.9a32.5,32.5,0,0,1,3.5,4.9,22.74,22.74,0,0,1,2.7,5.4" transform="translate(-192.2 -407.4)"/></svg>